<svg xmlns="http://www.w3.org/2000/svg" style="display:none">
<symbol id="i-camera" viewBox="0 0 24 24" fill="none" stroke="currentColor" stroke-width="1.8" stroke-linecap="round" stroke-linejoin="round"><path d="M4 8h3l2-2h6l2 2h3v11H4z"/><circle cx="12" cy="13" r="3.2"/></symbol>
<symbol id="i-chat" viewBox="0 0 24 24" fill="none" stroke="currentColor" stroke-width="1.8" stroke-linecap="round" stroke-linejoin="round"><path d="M4 6h16v10H9l-5 4z"/></symbol>
<symbol id="i-music" viewBox="0 0 24 24" fill="none" stroke="currentColor" stroke-width="1.8" stroke-linecap="round" stroke-linejoin="round"><path d="M9 18V6l10-2v11"/><circle cx="7" cy="18" r="2.5"/><circle cx="17" cy="15" r="2.5"/></symbol>
<symbol id="i-map" viewBox="0 0 24 24" fill="none" stroke="currentColor" stroke-width="1.8" stroke-linecap="round" stroke-linejoin="round"><path d="M9 4 4 6v14l5-2 6 2 5-2V4l-5 2z"/><path d="M9 4v14M15 6v14"/></symbol>
<symbol id="i-game" viewBox="0 0 24 24" fill="none" stroke="currentColor" stroke-width="1.8" stroke-linecap="round" stroke-linejoin="round"><rect x="3" y="7" width="18" height="11" rx="5"/><path d="M8 11v3M6.5 12.5h3M15.5 12h.01M17.5 14h.01"/></symbol>
<symbol id="i-smile" viewBox="0 0 24 24" fill="none" stroke="currentColor" stroke-width="1.8" stroke-linecap="round" stroke-linejoin="round"><circle cx="12" cy="12" r="8.5"/><path d="M9 14.5c.8.8 1.9 1.2 3 1.2s2.2-.4 3-1.2M9.5 9.5h.01M14.5 9.5h.01"/></symbol>
<symbol id="i-send" viewBox="0 0 24 24" fill="none" stroke="currentColor" stroke-width="1.8" stroke-linecap="round" stroke-linejoin="round"><path d="M20 4 11 13M20 4l-7 17-2-8-8-2z"/></symbol>
<symbol id="i-heart" viewBox="0 0 24 24" fill="none" stroke="currentColor" stroke-width="1.8" stroke-linecap="round" stroke-linejoin="round"><path d="M12 20s-7-4.5-7-10a4 4 0 0 1 7-2.5A4 4 0 0 1 19 10c0 5.5-7 10-7 10z"/></symbol>
<symbol id="i-phone" viewBox="0 0 24 24" fill="none" stroke="currentColor" stroke-width="1.8" stroke-linecap="round" stroke-linejoin="round"><path d="M6 3h4l2 5-2.5 1.5a12 12 0 0 0 5 5L16 12l5 2v4a2 2 0 0 1-2 2A16 16 0 0 1 4 5a2 2 0 0 1 2-2z"/></symbol>
<symbol id="i-compass" viewBox="0 0 24 24" fill="none" stroke="currentColor" stroke-width="1.8" stroke-linecap="round" stroke-linejoin="round"><circle cx="12" cy="12" r="8.5"/><path d="m15.5 8.5-2 5-5 2 2-5z"/></symbol>
<symbol id="i-mail" viewBox="0 0 24 24" fill="none" stroke="currentColor" stroke-width="1.8" stroke-linecap="round" stroke-linejoin="round"><rect x="4" y="6" width="16" height="12" rx="2"/><path d="m4 8 8 6 8-6"/></symbol>
<symbol id="i-note" viewBox="0 0 24 24" fill="none" stroke="currentColor" stroke-width="1.8" stroke-linecap="round" stroke-linejoin="round"><path d="M9 18V6l10-2v11"/><circle cx="7" cy="18" r="2.5"/><circle cx="17" cy="15" r="2.5"/></symbol>
<symbol id="i-bolt" viewBox="0 0 24 24" fill="none" stroke="currentColor" stroke-width="1.8" stroke-linecap="round" stroke-linejoin="round"><path d="M13 3 5 13h5l-1 8 8-10h-5z"/></symbol>
<symbol id="i-shield" viewBox="0 0 24 24" fill="none" stroke="currentColor" stroke-width="1.8" stroke-linecap="round" stroke-linejoin="round"><path d="M12 3 5 6v6c0 4.5 3 7.5 7 9 4-1.5 7-4.5 7-9V6z"/><path d="m9.5 12 2 2 3.5-4"/></symbol>
<symbol id="i-frame" viewBox="0 0 24 24" fill="none" stroke="currentColor" stroke-width="1.8" stroke-linecap="round" stroke-linejoin="round"><rect x="5" y="5" width="14" height="14" rx="2"/><path d="M5 9h14"/></symbol>
<symbol id="i-tg" viewBox="0 0 24 24" fill="none" stroke="currentColor" stroke-width="1.8" stroke-linecap="round" stroke-linejoin="round"><path d="M20 4 11 13M20 4l-7 17-2-8-8-2z"/></symbol>
<symbol id="i-arrow" viewBox="0 0 24 24" fill="none" stroke="currentColor" stroke-width="2" stroke-linecap="round" stroke-linejoin="round"><path d="M4 12h15M13 6l6 6-6 6"/></symbol>
<symbol id="i-user" viewBox="0 0 24 24" fill="none" stroke="currentColor" stroke-width="1.8" stroke-linecap="round" stroke-linejoin="round"><circle cx="12" cy="8" r="3.5"/><path d="M5 20c1.5-3.5 4-5 7-5s5.5 1.5 7 5"/></symbol>
<symbol id="i-photo" viewBox="0 0 24 24" fill="none" stroke="currentColor" stroke-width="1.8" stroke-linecap="round" stroke-linejoin="round"><rect x="4" y="5" width="16" height="14" rx="2"/><circle cx="12" cy="12" r="3"/><path d="M8 5l1.5-2h5L16 5"/></symbol>
<symbol id="i-video" viewBox="0 0 24 24" fill="none" stroke="currentColor" stroke-width="1.8" stroke-linecap="round" stroke-linejoin="round"><rect x="3" y="7" width="12" height="10" rx="2"/><path d="m15 10 6-3v10l-6-3"/></symbol>
<symbol id="i-book" viewBox="0 0 24 24" fill="none" stroke="currentColor" stroke-width="1.8" stroke-linecap="round" stroke-linejoin="round"><path d="M5 5h12a2 2 0 0 1 2 2v12H7a2 2 0 0 1-2-2z"/><path d="M5 17a2 2 0 0 1 2-2h12"/></symbol>
<symbol id="i-signal" viewBox="0 0 24 24" fill="currentColor"><rect x="4" y="14" width="3" height="6" rx="1"/><rect x="9" y="11" width="3" height="9" rx="1"/><rect x="14" y="8" width="3" height="12" rx="1"/><rect x="19" y="5" width="3" height="15" rx="1" opacity=".45"/></symbol>
<symbol id="i-battery" viewBox="0 0 28 14" fill="none" stroke="currentColor" stroke-width="1.6"><rect x="1" y="1.5" width="22" height="11" rx="3"/><rect x="3.5" y="4" width="14" height="6" rx="1.5" fill="currentColor" stroke="none"/><path d="M25 5v4" stroke-linecap="round"/></symbol>
<symbol id="i-crack" viewBox="0 0 24 24" fill="none" stroke="currentColor" stroke-width="1.8" stroke-linecap="round" stroke-linejoin="round"><rect x="7" y="3" width="10" height="18" rx="2.5"/><path d="M12 5.5 10.5 9l3 2.5L11 15l2 3.5"/></symbol>
</svg>
